<svg width="40" height="34" viewBox="0 0 40 34" fill="none" xmlns="http://www.w3.org/2000/svg">
<path d="M28.3333 32V28.6667C28.3333 26.8986 27.6309 25.2029 26.3807 23.9526C25.1305 22.7024 23.4348 22 21.6667 22H8.33332C6.56521 22 4.86952 22.7024 3.61928 23.9526C2.36904 25.2029 1.66666 26.8986 1.66666 28.6667V32M38.3333 32V28.6667C38.3322 27.1895 37.8406 25.7546 36.9356 24.5872C36.0306 23.4198 34.7635 22.5859 33.3333 22.2167M26.6667 2.21667C28.1007 2.58384 29.3717 3.41783 30.2794 4.58718C31.1871 5.75653 31.6797 7.19472 31.6797 8.675C31.6797 10.1553 31.1871 11.5935 30.2794 12.7628C29.3717 13.9322 28.1007 14.7662 26.6667 15.1333M21.6667 8.66667C21.6667 12.3486 18.6819 15.3333 15 15.3333C11.3181 15.3333 8.33332 12.3486 8.33332 8.66667C8.33332 4.98477 11.3181 2 15 2C18.6819 2 21.6667 4.98477 21.6667 8.66667Z" stroke="#B3B3B3" stroke-width="3.5" stroke-linecap="round" stroke-linejoin="round"/>
</svg>
